<svg width="40" height="40" viewBox="0 0 40 40" fill="none" xmlns="http://www.w3.org/2000/svg">
  <path d="M35 33.3333C35 33.7754 34.8244 34.1993 34.5118 34.5119C34.1993 34.8244 33.7754 35 33.3333 35H6.66667C6.22464 35 5.80072 34.8244 5.48816 34.5119C5.17559 34.1993 5 33.7754 5 33.3333V15.5233C4.9999 15.2716 5.05683 15.0231 5.16652 14.7965C5.27621 14.5699 5.43581 14.3711 5.63333 14.215L18.9667 3.69667C19.2609 3.46416 19.625 3.33768 20 3.33768C20.375 3.33768 20.7391 3.46416 21.0333 3.69667L34.3667 14.2133C34.5644 14.3696 34.7241 14.5687 34.8338 14.7956C34.9435 15.0225 35.0004 15.2713 35 15.5233V33.3333ZM11.6667 20C11.6667 22.2101 12.5446 24.3298 14.1074 25.8926C15.6702 27.4554 17.7899 28.3333 20 28.3333C22.2101 28.3333 24.3298 27.4554 25.8926 25.8926C27.4554 24.3298 28.3333 22.2101 28.3333 20H25C25 21.3261 24.4732 22.5979 23.5355 23.5355C22.5979 24.4732 21.3261 25 20 25C18.6739 25 17.4021 24.4732 16.4645 23.5355C15.5268 22.5979 15 21.3261 15 20H11.6667Z" fill="currentColor"/>
</svg>
